<?xml version="1.0" encoding="utf-8"?>
<!-- Generator: Adobe Illustrator 25.0.0, SVG Export Plug-In . SVG Version: 6.00 Build 0)  -->
<svg version="1.1" id="Layer_1" xmlns="http://www.w3.org/2000/svg" xmlns:xlink="http://www.w3.org/1999/xlink" x="0px" y="0px"
	 viewBox="0 0 218.1 217.8" style="enable-background:new 0 0 218.1 217.8;" xml:space="preserve">
<style type="text/css">
	.st0{fill:#49C00F;}
	.st1{fill:#FFFFFF;}
</style>
<g>
	<g>
		<g>
			
				<ellipse transform="matrix(0.7071 -0.7071 0.7071 0.7071 -45.0786 108.9707)" class="st0" cx="109" cy="108.9" rx="105.8" ry="105.8"/>
		</g>
	</g>
	<g>
		<g>
			<path class="st1" d="M164.8,57.7c-6.1-6.2-18.9-7.4-24.8,0c-10.2,12.7-20.4,25.4-30.7,38.1c-4.9,6-9.7,12.1-14.6,18.1
				c-1.7,2.1-3.8,5.4-6,8.3c-0.4-0.5-0.9-0.9-1.3-1.4c-3.3-3.4-6.6-6.8-9.9-10.2c-15.8-16.2-40.6,8.6-24.9,24.8
				c8.2,8.4,16.5,20.1,27.5,24.5c12.1,4.8,22.9-1,30.7-10.4c18.3-22.1,36-44.7,54-67.1C170.8,75.1,171.9,64.9,164.8,57.7z"/>
		</g>
	</g>
</g>
</svg>
