<?xml version="1.0" encoding="utf-8"?>
<!-- Generator: Adobe Illustrator 25.0.0, SVG Export Plug-In . SVG Version: 6.00 Build 0)  -->
<svg version="1.1" id="Layer_1" xmlns="http://www.w3.org/2000/svg" xmlns:xlink="http://www.w3.org/1999/xlink" x="0px" y="0px"
	 viewBox="0 0 255.3 122.3" style="enable-background:new 0 0 255.3 122.3;" xml:space="preserve">
<style type="text/css">
	.st0{fill:#CFD0D2;}
	.st1{fill:#FFFFFF;}
	.st2{fill:#808285;}
	.st3{fill:#CC2128;}
</style>
<g>
	<g>
		<g>
			<path class="st0" d="M243.6,61.2c0,23.1-18.7,41.8-41.8,41.8c-23.1,0-41.8-18.7-41.8-41.8c0-23.1,18.7-41.8,41.8-41.8
				C224.9,19.4,243.6,38.2,243.6,61.2L243.6,61.2z"/>
			<path class="st1" d="M183.4,101.2c-16.7-6.4-28.6-22.6-28.6-41.6c0-24.6,19.9-44.5,44.5-44.5c8.3,0,16,2.3,22.7,6.2L183.4,101.2
				L183.4,101.2z"/>
			<line class="st0" x1="233" y1="1.6" x2="175.1" y2="120.7"/>
			<polygon class="st0" points="234,2.1 232,1.1 174,120.2 176.1,121.2 234,2.1 			"/>
			<g>
				<g>
					<path class="st2" d="M7.7,59.9v7.4h4.7c1.4,0,2.4-0.3,3.1-0.9c0.7-0.6,1.1-1.5,1.1-2.6c0-1.2-0.3-2.1-1-2.8
						c-0.7-0.7-1.7-1-3-1.1h-0.2H7.7L7.7,59.9z M7.7,56.4h3.6c1.3,0,2.3-0.3,3-0.9c0.7-0.6,1.1-1.4,1.1-2.4c0-1.2-0.4-2-1.1-2.6
						c-0.7-0.6-1.8-0.8-3.3-0.8H7.7V56.4L7.7,56.4z M2.5,71.2V45.7h8.3c3,0,5.3,0.6,7,1.8c1.7,1.2,2.5,2.9,2.5,5.2
						c0,1.2-0.3,2.2-0.9,3.1c-0.6,0.9-1.5,1.6-2.7,2.1c1.6,0.3,2.8,1,3.6,2.1c0.8,1.1,1.2,2.4,1.2,3.8c0,2.4-0.8,4.3-2.4,5.5
						c-1.6,1.3-3.9,1.9-6.8,1.9H2.5L2.5,71.2z"/>
				</g>
			</g>
			<g>
				<path class="st2" d="M37.4,68.4c-0.6,1-1.3,1.8-2.2,2.3c-0.9,0.5-1.9,0.8-3.1,0.8c-2,0-3.6-0.7-4.7-2c-1.1-1.4-1.7-3.5-1.7-6.3
					v-11h5.1v11c0,1.7,0.2,2.8,0.7,3.4c0.4,0.6,1.1,0.9,2.1,0.9c0.8,0,1.5-0.1,2.1-0.4c0.6-0.3,1.1-0.7,1.4-1.2V52.2h5.1v18.9H38
					L37.4,68.4L37.4,68.4z"/>
			</g>
			<g>
				<path class="st2" d="M57,65.9c0-0.6-0.3-1-0.8-1.4c-0.5-0.4-1.5-0.8-3-1.1c-2.2-0.4-3.9-1.1-5.1-2c-1.1-0.9-1.7-2.1-1.7-3.7
					c0-1.6,0.7-3,2.1-4.1c1.4-1.1,3.2-1.7,5.5-1.7c2.4,0,4.3,0.6,5.8,1.7c1.4,1.1,2.1,2.6,2.1,4.3l0,0.1h-4.9c0-0.8-0.2-1.4-0.7-1.9
					c-0.5-0.5-1.2-0.7-2.1-0.7c-0.8,0-1.5,0.2-1.9,0.6c-0.5,0.4-0.7,0.9-0.7,1.5c0,0.6,0.2,1.1,0.7,1.4c0.5,0.4,1.5,0.7,3,1
					c2.3,0.5,4.1,1.2,5.2,2.1c1.1,0.9,1.7,2.2,1.7,3.7c0,1.7-0.7,3.1-2.2,4.2c-1.5,1.1-3.4,1.6-5.8,1.6c-2.5,0-4.5-0.6-6-1.9
					c-1.5-1.3-2.2-2.7-2.1-4.4l0-0.1h4.7c0,1,0.4,1.8,1,2.2c0.6,0.5,1.5,0.7,2.5,0.7c0.9,0,1.7-0.2,2.2-0.6
					C56.8,67.1,57,66.6,57,65.9L57,65.9z"/>
			</g>
			<g>
				<g>
					<path class="st2" d="M71.3,71.2h-5.1V52.2h5.1V71.2L71.3,71.2z M71.3,47.7h-5.1v-3.8h5.1V47.7L71.3,47.7z"/>
				</g>
			</g>
			<g>
				<path class="st2" d="M80.9,52.2l0.2,2.7c0.6-1,1.4-1.7,2.3-2.3c0.9-0.5,2-0.8,3.1-0.8c1.9,0,3.4,0.6,4.5,1.8
					c1.1,1.2,1.6,3.2,1.6,5.8v11.6h-5.1V59.6c0-1.4-0.2-2.3-0.7-2.9c-0.5-0.6-1.2-0.8-2.1-0.8c-0.8,0-1.4,0.1-2,0.4
					c-0.6,0.3-1.1,0.7-1.4,1.2v13.7h-5.1V52.2H80.9L80.9,52.2z"/>
			</g>
			<g>
				<g>
					<path class="st2" d="M105.1,55.8c-1,0-1.8,0.4-2.4,1.1c-0.6,0.7-0.9,1.6-1,2.8l0,0.1h6.2v-0.4c0-1.1-0.2-2-0.7-2.6
						C106.8,56.2,106.1,55.8,105.1,55.8L105.1,55.8z M105.5,71.6c-2.8,0-5.1-0.9-6.7-2.6c-1.6-1.7-2.4-4-2.4-6.7v-0.7
						c0-2.8,0.8-5.2,2.3-7c1.5-1.8,3.7-2.7,6.4-2.7c2.5,0,4.5,0.8,5.9,2.3c1.4,1.6,2,3.7,2,6.3v2.6h-11.3l0,0.1
						c0.1,1.3,0.5,2.3,1.2,3.1c0.7,0.8,1.8,1.2,3.2,1.2c1.1,0,2-0.1,2.8-0.3c0.7-0.2,1.6-0.5,2.6-1l1.3,3.2c-0.7,0.5-1.7,1-3,1.4
						C108.4,71.4,107,71.6,105.5,71.6L105.5,71.6z"/>
				</g>
			</g>
			<g>
				<path class="st2" d="M126.9,65.9c0-0.6-0.3-1-0.8-1.4c-0.5-0.4-1.5-0.8-3-1.1c-2.2-0.4-3.9-1.1-5.1-2c-1.1-0.9-1.7-2.1-1.7-3.7
					c0-1.6,0.7-3,2.1-4.1c1.4-1.1,3.2-1.7,5.5-1.7c2.4,0,4.3,0.6,5.8,1.7c1.4,1.1,2.1,2.6,2.1,4.3l0,0.1h-4.9c0-0.8-0.2-1.4-0.7-1.9
					c-0.5-0.5-1.2-0.7-2.1-0.7c-0.8,0-1.5,0.2-1.9,0.6c-0.5,0.4-0.7,0.9-0.7,1.5c0,0.6,0.2,1.1,0.7,1.4c0.5,0.4,1.5,0.7,3,1
					c2.3,0.5,4.1,1.2,5.2,2.1c1.1,0.9,1.7,2.2,1.7,3.7c0,1.7-0.7,3.1-2.2,4.2c-1.5,1.1-3.4,1.6-5.8,1.6c-2.5,0-4.5-0.6-6-1.9
					c-1.5-1.3-2.2-2.7-2.1-4.4l0-0.1h4.7c0,1,0.4,1.8,1,2.2c0.6,0.5,1.5,0.7,2.5,0.7c0.9,0,1.7-0.2,2.2-0.6
					C126.7,67.1,126.9,66.6,126.9,65.9L126.9,65.9z"/>
			</g>
			<g>
				<path class="st2" d="M146.1,65.9c0-0.6-0.3-1-0.8-1.4c-0.5-0.4-1.5-0.8-3-1.1c-2.2-0.4-3.9-1.1-5.1-2c-1.1-0.9-1.7-2.1-1.7-3.7
					c0-1.6,0.7-3,2.1-4.1c1.4-1.1,3.2-1.7,5.5-1.7c2.4,0,4.3,0.6,5.8,1.7c1.4,1.1,2.1,2.6,2.1,4.3l0,0.1h-4.9c0-0.8-0.2-1.4-0.7-1.9
					c-0.5-0.5-1.2-0.7-2.1-0.7c-0.8,0-1.5,0.2-1.9,0.6c-0.5,0.4-0.7,0.9-0.7,1.5c0,0.6,0.2,1.1,0.7,1.4c0.5,0.4,1.5,0.7,3,1
					c2.3,0.5,4.1,1.2,5.2,2.1c1.1,0.9,1.7,2.2,1.7,3.7c0,1.7-0.7,3.1-2.2,4.2c-1.5,1.1-3.4,1.6-5.8,1.6c-2.5,0-4.5-0.6-6-1.9
					c-1.5-1.3-2.2-2.7-2.1-4.4l0-0.1h4.7c0,1,0.4,1.8,1,2.2c0.6,0.5,1.5,0.7,2.5,0.7c0.9,0,1.7-0.2,2.2-0.6
					C145.9,67.1,146.1,66.6,146.1,65.9L146.1,65.9z"/>
			</g>
			<path class="st3" d="M186.2,62.8l0,0.1c0,2.7-0.8,4.8-2.5,6.4c-1.7,1.5-4.1,2.3-7.1,2.3c-3.1,0-5.5-1-7.4-2.9
				c-1.9-2-2.8-4.5-2.8-7.6v-5.1c0-3.1,0.9-5.6,2.7-7.6c1.8-2,4.2-3,7.2-3c3.1,0,5.5,0.8,7.3,2.3c1.8,1.5,2.6,3.7,2.6,6.4l0,0.1h-5
				c0-1.6-0.4-2.9-1.2-3.7c-0.8-0.8-2-1.2-3.6-1.2c-1.5,0-2.7,0.6-3.6,1.8c-0.9,1.2-1.3,2.8-1.3,4.8V61c0,2,0.5,3.6,1.4,4.8
				c0.9,1.2,2.2,1.9,3.8,1.9c1.5,0,2.7-0.4,3.4-1.2c0.8-0.8,1.1-2,1.1-3.7H186.2L186.2,62.8z"/>
			<path class="st3" d="M194.6,61.9c0,1.7,0.3,3.1,0.9,4.2c0.6,1,1.6,1.6,2.9,1.6c1.3,0,2.3-0.5,2.9-1.6c0.6-1.1,0.9-2.4,0.9-4.1
				v-0.4c0-1.7-0.3-3.1-0.9-4.1c-0.6-1.1-1.6-1.6-2.9-1.6c-1.3,0-2.3,0.5-2.9,1.6c-0.6,1.1-0.9,2.4-0.9,4.1V61.9L194.6,61.9z
				 M189.5,61.5c0-2.8,0.8-5.1,2.4-6.9c1.6-1.8,3.8-2.7,6.5-2.7c2.8,0,5,0.9,6.6,2.7c1.6,1.8,2.4,4.1,2.4,7v0.4c0,2.8-0.8,5.2-2.4,7
				c-1.6,1.8-3.8,2.7-6.6,2.7c-2.8,0-5-0.9-6.6-2.7c-1.6-1.8-2.4-4.1-2.4-7V61.5L189.5,61.5z"/>
			<path class="st3" d="M216,52.2l0.2,2.5c0.6-0.9,1.4-1.6,2.3-2.1c0.9-0.5,2-0.7,3.2-0.7c1.2,0,2.3,0.3,3.1,0.8
				c0.9,0.5,1.5,1.3,2,2.4c0.6-1,1.3-1.8,2.3-2.4c0.9-0.6,2-0.9,3.3-0.9c1.9,0,3.3,0.7,4.4,2c1.1,1.3,1.6,3.3,1.6,6.1v11.2h-5.1
				V59.9c0-1.5-0.2-2.6-0.7-3.2c-0.5-0.6-1.2-0.9-2.1-0.9c-0.7,0-1.4,0.2-1.9,0.5c-0.5,0.3-1,0.8-1.3,1.3c0,0.2,0,0.4,0,0.6
				c0,0.2,0,0.3,0,0.5v12.4h-5.1V59.9c0-1.5-0.2-2.5-0.7-3.1c-0.5-0.6-1.2-0.9-2.1-0.9c-0.7,0-1.3,0.1-1.8,0.4
				c-0.5,0.3-0.9,0.6-1.3,1.1v13.8h-5.1V52.2H216L216,52.2z"/>
			<g>
				<path class="st2" d="M8.7,87.7c-1.4-0.4-2.4-0.9-3.1-1.5c-0.6-0.6-1-1.3-1-2.2c0-1,0.4-1.8,1.2-2.4c0.8-0.6,1.8-1,3.1-1
					c0.9,0,1.6,0.2,2.3,0.5c0.7,0.3,1.2,0.8,1.6,1.4c0.4,0.6,0.6,1.2,0.6,1.9h-1.7c0-0.8-0.2-1.4-0.7-1.8c-0.5-0.4-1.2-0.7-2-0.7
					c-0.8,0-1.4,0.2-1.9,0.5c-0.5,0.4-0.7,0.9-0.7,1.5c0,0.5,0.2,0.9,0.6,1.3c0.4,0.4,1.2,0.7,2.2,1c1,0.3,1.9,0.6,2.4,1
					c0.6,0.4,1,0.8,1.3,1.2c0.3,0.5,0.4,1,0.4,1.7c0,1-0.4,1.8-1.2,2.4c-0.8,0.6-1.8,0.9-3.2,0.9c-0.9,0-1.7-0.2-2.4-0.5
					c-0.7-0.3-1.3-0.8-1.7-1.4c-0.4-0.6-0.6-1.2-0.6-2h1.7c0,0.8,0.3,1.4,0.8,1.8c0.6,0.4,1.3,0.7,2.2,0.7c0.9,0,1.5-0.2,2-0.5
					c0.5-0.4,0.7-0.8,0.7-1.5c0-0.6-0.2-1.1-0.6-1.4C10.6,88.3,9.8,88,8.7,87.7L8.7,87.7z"/>
			</g>
			<g>
				<g>
					<path class="st2" d="M18.9,85.1c-0.6,0-1.2,0.2-1.6,0.7c-0.4,0.5-0.7,1.1-0.8,2h4.7v-0.1c0-0.8-0.3-1.4-0.7-1.9
						C20.1,85.3,19.6,85.1,18.9,85.1L18.9,85.1z M19.1,93.4c-1.3,0-2.3-0.4-3.1-1.2c-0.8-0.8-1.2-1.9-1.2-3.3v-0.3
						c0-0.9,0.2-1.7,0.5-2.5c0.4-0.7,0.8-1.3,1.5-1.7c0.6-0.4,1.3-0.6,2.1-0.6c1.2,0,2.2,0.4,2.8,1.2c0.7,0.8,1,1.9,1,3.4v0.7h-6.3
						c0,0.9,0.3,1.7,0.8,2.2c0.5,0.6,1.2,0.8,2,0.8c0.6,0,1-0.1,1.4-0.3c0.4-0.2,0.7-0.5,1-0.9l1,0.8C21.8,92.8,20.7,93.4,19.1,93.4
						L19.1,93.4z"/>
				</g>
			</g>
			<g>
				<path class="st2" d="M29.1,85.4c-0.2,0-0.5-0.1-0.8-0.1c-1,0-1.8,0.4-2.1,1.3v6.6h-1.6V84h1.5l0,1.1c0.5-0.8,1.3-1.2,2.2-1.2
					c0.3,0,0.5,0,0.7,0.1V85.4L29.1,85.4z"/>
			</g>
			<g>
				<polygon class="st2" points="33.7,91.1 36.1,84 37.7,84 34.3,93.3 33.1,93.3 29.8,84 31.4,84 33.7,91.1 				"/>
			</g>
			<g>
				<g>
					<path class="st2" d="M40.9,93.3h-1.6V84h1.6V93.3L40.9,93.3z M39.2,81.5c0-0.3,0.1-0.5,0.2-0.7c0.2-0.2,0.4-0.3,0.7-0.3
						c0.3,0,0.5,0.1,0.7,0.3c0.2,0.2,0.2,0.4,0.2,0.7c0,0.3-0.1,0.5-0.2,0.6c-0.2,0.2-0.4,0.3-0.7,0.3c-0.3,0-0.5-0.1-0.7-0.3
						C39.3,82,39.2,81.8,39.2,81.5L39.2,81.5z"/>
				</g>
			</g>
			<g>
				<path class="st2" d="M45,84l0.1,1.2c0.7-0.9,1.6-1.3,2.8-1.3c2,0,3,1.1,3,3.3v6.2h-1.6v-6.2c0-0.7-0.2-1.2-0.5-1.5
					c-0.3-0.3-0.8-0.5-1.4-0.5c-0.5,0-1,0.1-1.4,0.4c-0.4,0.3-0.7,0.6-0.9,1.1v6.6h-1.6V84H45L45,84z"/>
			</g>
			<g>
				<g>
					<path class="st2" d="M54.4,88.7c0,1,0.2,1.9,0.6,2.5c0.4,0.6,1,0.9,1.8,0.9c1,0,1.7-0.5,2.2-1.4v-4.2c-0.5-0.9-1.2-1.3-2.2-1.3
						c-0.8,0-1.4,0.3-1.8,0.9C54.6,86.6,54.4,87.5,54.4,88.7L54.4,88.7z M52.8,88.5c0-1.5,0.3-2.6,1-3.5c0.7-0.9,1.6-1.3,2.7-1.3
						c1.1,0,2,0.4,2.7,1.2l0.1-1h1.5V93c0,1.2-0.4,2.2-1.1,2.8c-0.7,0.7-1.7,1-2.9,1c-0.7,0-1.3-0.1-2-0.4c-0.6-0.3-1.1-0.7-1.5-1.2
						l0.8-1c0.7,0.8,1.5,1.3,2.5,1.3c0.8,0,1.4-0.2,1.8-0.7c0.4-0.4,0.6-1,0.6-1.8v-0.8c-0.6,0.7-1.5,1.1-2.6,1.1
						c-1.1,0-2-0.4-2.6-1.3C53.2,91.2,52.8,90.1,52.8,88.5L52.8,88.5z"/>
				</g>
			</g>
			<g>
				<g>
					<path class="st2" d="M69.9,88.6h4.3L72,82.8L69.9,88.6L69.9,88.6z M74.6,90h-5.2l-1.2,3.3h-1.7l4.8-12.5h1.4l4.8,12.5h-1.7
						L74.6,90L74.6,90z"/>
				</g>
			</g>
			<g>
				<path class="st2" d="M79.7,93.3v-8.1h-1.5V84h1.5v-1c0-1,0.3-1.8,0.8-2.3c0.5-0.5,1.3-0.8,2.3-0.8c0.4,0,0.7,0,1.1,0.1l-0.1,1.3
					c-0.3-0.1-0.6-0.1-0.9-0.1c-0.5,0-0.9,0.2-1.2,0.5c-0.3,0.3-0.4,0.7-0.4,1.3v1h2v1.2h-2v8.1H79.7L79.7,93.3z"/>
			</g>
			<g>
				<path class="st2" d="M89.6,85.4c-0.2,0-0.5-0.1-0.8-0.1c-1,0-1.8,0.4-2.1,1.3v6.6h-1.6V84h1.5l0,1.1c0.5-0.8,1.3-1.2,2.2-1.2
					c0.3,0,0.5,0,0.7,0.1V85.4L89.6,85.4z"/>
			</g>
			<g>
				<g>
					<path class="st2" d="M92.8,93.3h-1.6V84h1.6V93.3L92.8,93.3z M91,81.5c0-0.3,0.1-0.5,0.2-0.7c0.2-0.2,0.4-0.3,0.7-0.3
						s0.5,0.1,0.7,0.3c0.2,0.2,0.2,0.4,0.2,0.7c0,0.3-0.1,0.5-0.2,0.6c-0.2,0.2-0.4,0.3-0.7,0.3s-0.5-0.1-0.7-0.3
						C91.1,82,91,81.8,91,81.5L91,81.5z"/>
				</g>
			</g>
			<g>
				<path class="st2" d="M99,92.1c0.6,0,1.1-0.2,1.5-0.5c0.4-0.3,0.7-0.8,0.7-1.3h1.5c0,0.5-0.2,1-0.6,1.5c-0.3,0.5-0.8,0.9-1.4,1.2
					c-0.6,0.3-1.2,0.4-1.8,0.4c-1.3,0-2.3-0.4-3-1.3c-0.7-0.8-1.1-2-1.1-3.5v-0.3c0-0.9,0.2-1.7,0.5-2.4c0.3-0.7,0.8-1.3,1.4-1.6
					c0.6-0.4,1.4-0.6,2.2-0.6c1,0,1.9,0.3,2.6,0.9c0.7,0.6,1.1,1.4,1.1,2.4h-1.5c0-0.6-0.3-1.1-0.7-1.5c-0.4-0.4-0.9-0.6-1.5-0.6
					c-0.8,0-1.4,0.3-1.9,0.9c-0.4,0.6-0.7,1.4-0.7,2.5v0.3c0,1.1,0.2,1.9,0.7,2.5C97.6,91.9,98.2,92.1,99,92.1L99,92.1z"/>
			</g>
			<g>
				<g>
					<path class="st2" d="M107.6,92.1c0.5,0,1-0.1,1.4-0.4c0.4-0.3,0.8-0.6,1-1v-1.9h-1.2c-1.9,0-2.9,0.6-2.9,1.7
						c0,0.5,0.2,0.9,0.5,1.2C106.7,91.9,107.1,92.1,107.6,92.1L107.6,92.1z M110.3,93.3c-0.1-0.2-0.2-0.5-0.2-1
						c-0.7,0.8-1.6,1.2-2.6,1.2c-0.9,0-1.7-0.3-2.3-0.8c-0.6-0.5-0.9-1.2-0.9-2c0-1,0.4-1.7,1.1-2.3c0.7-0.5,1.8-0.8,3.1-0.8h1.5
						v-0.7c0-0.6-0.2-1-0.5-1.3c-0.3-0.3-0.8-0.5-1.5-0.5c-0.6,0-1,0.1-1.4,0.4c-0.4,0.3-0.6,0.6-0.6,1h-1.6c0-0.5,0.2-0.9,0.5-1.3
						c0.3-0.4,0.8-0.8,1.3-1c0.6-0.3,1.2-0.4,1.9-0.4c1.1,0,1.9,0.3,2.5,0.8c0.6,0.5,0.9,1.3,0.9,2.2v4.3c0,0.9,0.1,1.5,0.3,2v0.1
						H110.3L110.3,93.3z"/>
				</g>
			</g>
		</g>
	</g>
	<g>
		<g>
			<path class="st2" d="M243.7,19.2v1.2h-1.9v5.4h-1.5v-5.4h-1.9v-1.2H243.7z"/>
			<path class="st2" d="M248.4,23.2c0.1,0.1,0.1,0.3,0.2,0.4c0.1-0.1,0.1-0.3,0.2-0.4c0.1-0.1,0.1-0.2,0.2-0.4l1.7-3.4
				c0-0.1,0.1-0.1,0.1-0.1c0,0,0.1-0.1,0.1-0.1c0,0,0.1,0,0.1,0c0.1,0,0.1,0,0.2,0h1.2v6.6h-1.4v-3.8c0-0.2,0-0.4,0-0.6l-1.8,3.4
				c-0.1,0.1-0.1,0.2-0.2,0.2c-0.1,0.1-0.2,0.1-0.3,0.1h-0.2c-0.1,0-0.2,0-0.3-0.1c-0.1-0.1-0.2-0.1-0.2-0.2l-1.8-3.4
				c0,0.1,0,0.2,0,0.3c0,0.1,0,0.2,0,0.3v3.8h-1.4v-6.6h1.2c0.1,0,0.1,0,0.2,0c0.1,0,0.1,0,0.1,0c0,0,0.1,0,0.1,0.1
				c0,0,0.1,0.1,0.1,0.1l1.7,3.4C248.3,23,248.3,23.1,248.4,23.2z"/>
		</g>
	</g>
</g>
</svg>
