<?xml version="1.0" encoding="utf-8"?>
<!-- Generator: Adobe Illustrator 25.0.0, SVG Export Plug-In . SVG Version: 6.00 Build 0)  -->
<svg version="1.1" id="Layer_1" xmlns="http://www.w3.org/2000/svg" xmlns:xlink="http://www.w3.org/1999/xlink" x="0px" y="0px"
	 viewBox="0 0 360 122.3" style="enable-background:new 0 0 360 122.3;" xml:space="preserve">
<style type="text/css">
	.st0{fill:#929497;}
</style>
<g>
	<g>
		<path class="st0" d="M162.5,18.1c1.3-1,2.4-1.8,3.6-2.6c4.8-3.2,10-4.5,15.6-2.8c4.9,1.4,8.3,4.8,10.5,9.3
			c5.3,10.9,3.1,25.4-5.3,34.1c-5,5.2-11.2,7.5-18.5,6.1c-1.8-0.3-3.3-1.3-4.8-2.3c-0.3-0.2-0.6-0.4-0.8-0.6
			c-0.3,0.2-0.2,0.5-0.2,0.7c0,4.6,0,9.3,0.1,13.9c0,0.7,0.1,1.4,0.3,2.1c0.6,2.5,2,3.8,4.7,4.2c0.4,0.1,0.8-0.1,0.9,0.5
			c0.1,0.7-0.1,1-0.9,1c-7.1,0-14.3,0-21.4,0c-1.9,0-3.9,0-5.8,0c-0.3,0-0.9,0.2-0.8-0.5c0-0.5-0.2-1,0.6-1.2
			c3.5-0.7,4.8-3.2,5.2-6.5c0.1-1.1,0.2-2.1,0.2-3.2c0-12.9,0-25.9,0-38.8c0-2-0.1-3.9-0.6-5.9c-0.7-2.7-2.4-4.4-5.2-5
			c-0.5-0.1-1.1,0-1.1-0.9c0-0.8,0.5-0.9,1.1-1.1c7.3-2.2,14.5-4.3,21.8-6.5c0.8-0.2,1.1-0.2,1,0.7
			C162.4,14.6,162.5,16.3,162.5,18.1z M162.5,38.7c0,6,0,12,0,18c0,0.8,0.3,1.3,0.9,1.7c2.9,2.1,6.5,1.7,8.9-1
			c1.7-2,2.7-4.4,3.2-6.9c1.7-7.5,1.7-15.1,0.4-22.7c-0.5-2.8-1.4-5.5-3.2-7.8c-1.2-1.5-2.7-2.5-4.6-2.5c-1.8,0-3.3,0.9-4.8,1.7
			c-0.7,0.4-0.9,0.8-0.9,1.5C162.5,26.7,162.5,32.7,162.5,38.7z"/>
		<path class="st0" d="M222.3,18.2c1-0.8,1.9-1.4,2.7-2c3.3-2.4,7-4,11.1-4.1c6.6-0.2,11.5,2.8,14.9,8.3c3.3,5.4,4,11.4,3.6,17.5
			c-0.4,5.2-1.9,10-4.8,14.4c-4.4,6.6-10.4,10.5-18.5,10.4c-2.9,0-5.5-1-7.9-2.6c-0.3-0.2-0.6-0.4-0.9-0.6c-0.3,0.2-0.2,0.4-0.2,0.6
			c0,4.6,0,9.2,0.1,13.8c0,0.8,0.1,1.5,0.3,2.3c0.6,2.5,2,3.8,4.6,4.1c0.6,0.1,1,0.2,1,1c0,0.9-0.6,0.6-1,0.6c-9,0-18.1,0-27.1,0
			c-0.3,0-0.9,0.3-0.9-0.4c0-0.5-0.3-1.1,0.5-1.2c3.5-0.7,4.8-3.2,5.2-6.4c0.1-1.1,0.2-2.1,0.2-3.2c0-12.9,0-25.9,0-38.8
			c0-1.9-0.1-3.9-0.6-5.8c-0.7-2.8-2.4-4.6-5.3-5.2c-0.4-0.1-1,0-1-0.8c0-0.7,0.3-0.9,0.9-1.1c7.3-2.2,14.7-4.3,22-6.6
			c0.7-0.2,1-0.2,1,0.7C222.2,14.6,222.3,16.3,222.3,18.2z M222.2,38.7c0,6,0,12,0,18c0,0.8,0.2,1.3,0.9,1.7c2.9,2.1,6.5,1.7,8.9-1
			c1.8-2,2.7-4.4,3.3-7c1.7-7.5,1.7-15.1,0.4-22.6c-0.5-2.8-1.4-5.5-3.2-7.8c-1.2-1.5-2.6-2.5-4.6-2.5c-1.8,0-3.2,0.9-4.7,1.7
			c-0.7,0.4-1,0.9-1,1.7C222.3,26.8,222.2,32.7,222.2,38.7z"/>
		<path class="st0" d="M111.2,12c8.8,0.2,16.1,3.3,21.6,10.4c6.6,8.4,6.6,21.2,0,29.7c-6.3,8.1-14.8,11.1-24.9,10.2
			c-5.9-0.5-11.1-2.8-15.3-6.8c-6.1-5.7-8.7-12.7-7.9-21c1.2-11.7,10.9-21.1,23.1-22.3C109,12.1,110.1,12,111.2,12z M103.3,37.2
			c0,2.7-0.1,5.3,0,8c0.2,3.4,0.5,6.8,1.3,10.1c0.4,1.8,1.2,3.5,2.7,4.6c3.6,2.8,8.6,1.1,10.1-3.5c1.2-3.8,1.5-7.7,1.7-11.7
			c0.4-6.7,0.3-13.4-0.4-20c-0.3-2.7-0.6-5.5-1.9-8c-1.8-3.4-5.6-4.6-8.8-2.7c-2,1.2-2.9,3.1-3.4,5.3
			C103.2,25.2,103.2,31.2,103.3,37.2z"/>
		<path class="st0" d="M291.5,32.6c-5,0-10,0-14.9,0c-0.8,0-1,0.2-0.9,1c0.1,2.7,0.4,5.4,1.4,7.9c1.7,4.6,4.9,7.5,9.7,8.5
			c5.5,1.2,10.8,0.7,15.6-2.6c1.8-1.2,3-2.8,4.2-4.6c0.2-0.3,0.4-0.7,0.9-0.5c0.6,0.3,0.2,0.7,0.1,1c-1.6,4.6-3.8,8.8-7.3,12.3
			c-5.5,5.5-12.2,7.4-19.8,6.7c-5.6-0.5-10.6-2.5-14.8-6.4c-6.1-5.5-8.5-12.5-7.8-20.6c0.7-7.8,4.4-14,10.8-18.6
			c5.5-3.9,11.6-5.3,18.3-4.6c4.5,0.5,8.7,2,12.2,4.9c4.4,3.6,6.9,8.3,8,13.8c0.3,1.8,0.3,1.8-1.6,1.8
			C300.9,32.6,296.2,32.6,291.5,32.6z M283.1,30.5c2.1,0,4.2,0,6.4,0c0.9,0,1.1-0.3,1-1.1c-0.1-1.8-0.1-3.6-0.2-5.4
			c-0.2-2.5-0.4-5.1-1.4-7.5c-1.8-4.4-7-4.2-9.4-1.4c-0.8,1-1.4,2-1.9,3.2c-1.4,3.7-1.7,7.6-1.8,11.5c0,0.7,0.4,0.6,0.8,0.6
			C278.7,30.5,280.9,30.5,283.1,30.5z"/>
		<path class="st0" d="M60.5,12c5.7,0.1,11,1.5,15.4,5.4c3.5,3.2,5.4,7.1,4.8,12c-0.5,4-4.1,7.1-8,6.9c-4.1-0.1-7.4-3.2-7.8-7.3
			c-0.2-2.3,0.4-4.3,1-6.4c0.5-1.7,0.8-3.4,0.5-5.1c-0.8-3.8-5.3-5.5-8.8-3.4c-1.8,1.1-3.2,2.7-4.1,4.6c-3.4,7.1-3.9,14.4-1.1,21.8
			c2.6,6.9,9.1,10.5,16.6,9.6c4.6-0.5,8.3-2.5,11.6-5.6c0.2-0.2,0.4-0.4,0.6-0.6c0.4-0.3,0.7,0.1,1.1,0.2c0.4,0.2,0.1,0.4,0,0.6
			c-2.4,5.1-5.4,9.8-10,13.2c-4.7,3.6-10.2,4.8-16,4.4c-6.5-0.5-12.2-3-16.6-7.9c-3.8-4.3-5.7-9.4-6-15.2
			C33,25.9,42.2,15.2,54.8,12.5C56.7,12.2,58.6,12,60.5,12z"/>
		<path class="st0" d="M334,12c0,0.5,0,0.9,0,1.3c0,12.1,0,24.3,0,36.4c0,1.9,0,3.8,0.4,5.7c0.6,2.7,1.8,3.8,4.4,4.3
			c0.4,0.1,0.9-0.1,1,0.4c0.1,0.5,0.3,1.1-0.7,1.1c-9.2,0-18.3,0-27.5,0c-0.4,0-0.8,0.2-0.8-0.5c0-0.6,0.2-0.9,0.8-0.9
			c0.2,0,0.4-0.1,0.6-0.1c2.9-0.5,4.3-1.9,4.6-4.9c0.1-1.4,0.2-2.8,0.2-4.2c0-6.4,0-12.9,0-19.3c0-1.6-0.1-3.2-0.4-4.8
			c-0.6-3.3-2.4-5.1-5.7-5.8c-0.7-0.1-1-0.4-0.9-1.1c0-0.7,0.5-0.7,0.8-0.8c4.7-1.4,9.4-2.8,14.2-4.2C328,13.8,330.9,12.9,334,12z"
			/>
		<path class="st0" d="M13.1,33.1c-4.7,0-8.6-3.9-8.5-8.6c0-4.7,3.9-8.5,8.7-8.5c4.7,0,8.5,3.9,8.5,8.6
			C21.7,29.2,17.9,33.1,13.1,33.1z"/>
		<path class="st0" d="M13.2,58.5c-4.7,0-8.6-3.9-8.5-8.6c0-4.7,3.9-8.5,8.7-8.5c4.7,0,8.5,3.9,8.5,8.6
			C21.8,54.7,17.9,58.5,13.2,58.5z"/>
		<path class="st0" d="M337.9,18.9c0-4.5,3.5-8,8-7.9c4.5,0,8,3.6,8,8c0,4.5-3.6,7.9-8.1,7.9C341.5,27,337.7,23.2,337.9,18.9z"/>
	</g>
	<g>
		<path class="st0" d="M47.2,90.3c1.7,0,3.2,0.2,4.4,0.6s2.3,1,3.1,1.7c0.8,0.7,1.4,1.6,1.8,2.6s0.6,2.2,0.6,3.4S57,101,56.6,102
			c-0.4,1-1.1,1.9-1.9,2.7c-0.8,0.8-1.9,1.3-3.1,1.7c-1.3,0.4-2.7,0.6-4.3,0.6h-4.1v9.8h-3.9V90.3H47.2z M47.2,103.9
			c1,0,1.9-0.1,2.6-0.4c0.8-0.3,1.4-0.6,1.9-1.1c0.5-0.5,0.9-1,1.2-1.7c0.3-0.7,0.4-1.4,0.4-2.2c0-1.6-0.5-2.9-1.5-3.8
			c-1-0.9-2.5-1.4-4.6-1.4h-4.1v10.6H47.2z"/>
		<path class="st0" d="M59.8,100.7c1-1,2.2-1.7,3.4-2.2c1.2-0.5,2.6-0.7,4-0.7c1.1,0,2,0.2,2.8,0.5c0.8,0.4,1.5,0.8,2.1,1.5
			c0.6,0.6,1,1.4,1.3,2.3c0.3,0.9,0.4,1.8,0.4,2.9v12h-1.6c-0.4,0-0.6-0.1-0.8-0.2s-0.3-0.3-0.4-0.7l-0.4-1.6
			c-0.5,0.4-1,0.8-1.4,1.2c-0.5,0.3-1,0.6-1.5,0.9c-0.5,0.2-1.1,0.4-1.6,0.5c-0.6,0.1-1.2,0.2-1.9,0.2c-0.7,0-1.4-0.1-2.1-0.3
			c-0.6-0.2-1.2-0.5-1.7-0.9c-0.5-0.4-0.9-0.9-1.1-1.6c-0.3-0.6-0.4-1.4-0.4-2.2c0-0.7,0.2-1.5,0.6-2.1c0.4-0.7,1.1-1.3,2-1.8
			c0.9-0.5,2.1-1,3.6-1.3c1.5-0.3,3.3-0.5,5.4-0.6v-1.4c0-1.4-0.3-2.5-0.9-3.2c-0.6-0.7-1.5-1.1-2.7-1.1c-0.8,0-1.5,0.1-2,0.3
			c-0.5,0.2-1,0.4-1.4,0.7c-0.4,0.2-0.7,0.5-1,0.7c-0.3,0.2-0.6,0.3-0.9,0.3c-0.2,0-0.5-0.1-0.6-0.2c-0.2-0.1-0.3-0.3-0.4-0.5
			L59.8,100.7z M70.3,108.5c-1.5,0-2.7,0.2-3.7,0.3c-1,0.2-1.9,0.4-2.5,0.7c-0.6,0.3-1.1,0.6-1.4,1c-0.3,0.4-0.4,0.8-0.4,1.3
			c0,0.5,0.1,0.9,0.2,1.2c0.2,0.3,0.4,0.6,0.6,0.8c0.3,0.2,0.6,0.4,0.9,0.5c0.4,0.1,0.7,0.1,1.2,0.1c0.6,0,1.1-0.1,1.5-0.2
			c0.5-0.1,0.9-0.3,1.3-0.5c0.4-0.2,0.8-0.5,1.2-0.7c0.4-0.3,0.7-0.6,1.1-1V108.5z"/>
		<path class="st0" d="M82.1,101.7c0.6-1.2,1.3-2.2,2.2-2.9c0.9-0.7,1.9-1.1,3.1-1.1c0.4,0,0.8,0,1.2,0.1c0.4,0.1,0.7,0.2,1,0.4
			l-0.2,2.7c-0.1,0.3-0.3,0.5-0.6,0.5c-0.2,0-0.4,0-0.8-0.1s-0.7-0.1-1.1-0.1c-0.6,0-1.1,0.1-1.5,0.3c-0.4,0.2-0.8,0.4-1.2,0.7
			c-0.4,0.3-0.7,0.7-0.9,1.2c-0.3,0.5-0.5,1-0.8,1.6v11.8h-3.6V98h2.1c0.4,0,0.7,0.1,0.8,0.2c0.1,0.1,0.2,0.4,0.3,0.7L82.1,101.7z"
			/>
		<path class="st0" d="M98.2,117.1c-1.5,0-2.7-0.4-3.5-1.3c-0.8-0.9-1.2-2.1-1.2-3.6V101h-2.2c-0.2,0-0.4-0.1-0.5-0.2
			c-0.1-0.1-0.2-0.3-0.2-0.6v-1.5l3.1-0.4l0.8-5.6c0-0.2,0.1-0.4,0.3-0.5c0.1-0.1,0.3-0.2,0.5-0.2H97v6.3h5.3v2.6H97v11
			c0,0.7,0.2,1.3,0.5,1.7c0.4,0.4,0.8,0.5,1.4,0.5c0.3,0,0.6,0,0.9-0.1c0.2-0.1,0.4-0.2,0.6-0.3c0.2-0.1,0.3-0.2,0.4-0.3
			c0.1-0.1,0.2-0.1,0.3-0.1c0.1,0,0.2,0,0.3,0.1c0.1,0.1,0.1,0.1,0.2,0.3l1.1,1.7c-0.6,0.5-1.3,1-2.1,1.3
			C99.9,117,99,117.1,98.2,117.1z"/>
		<path class="st0" d="M109.1,100.7c0.4-0.4,0.8-0.8,1.3-1.2c0.4-0.4,0.9-0.7,1.4-0.9c0.5-0.3,1-0.4,1.6-0.6
			c0.6-0.1,1.2-0.2,1.8-0.2c1,0,1.9,0.2,2.7,0.5c0.8,0.3,1.4,0.8,2,1.5c0.5,0.6,0.9,1.4,1.2,2.2c0.3,0.9,0.4,1.8,0.4,2.9v12h-3.6
			v-12c0-1.3-0.3-2.4-0.9-3.1c-0.6-0.7-1.6-1.1-2.8-1.1c-0.9,0-1.8,0.2-2.6,0.7c-0.8,0.4-1.6,1-2.2,1.8v13.8h-3.6V98h2.2
			c0.5,0,0.8,0.2,0.9,0.7L109.1,100.7z"/>
		<path class="st0" d="M141.8,114.2c-0.4,0.5-1,1-1.5,1.3c-0.6,0.4-1.2,0.7-1.9,0.9c-0.7,0.2-1.3,0.4-2,0.5
			c-0.7,0.1-1.4,0.2-2.1,0.2c-1.3,0-2.5-0.2-3.6-0.7c-1.1-0.4-2.1-1.1-2.9-1.9c-0.8-0.8-1.4-1.9-1.9-3.1c-0.4-1.3-0.7-2.7-0.7-4.3
			c0-1.3,0.2-2.5,0.6-3.7c0.4-1.1,1-2.1,1.8-3c0.8-0.8,1.7-1.5,2.8-2c1.1-0.5,2.3-0.7,3.7-0.7c1.1,0,2.2,0.2,3.2,0.6
			c1,0.4,1.8,0.9,2.5,1.6c0.7,0.7,1.3,1.6,1.7,2.6c0.4,1,0.6,2.2,0.6,3.6c0,0.6-0.1,0.9-0.2,1.1s-0.4,0.3-0.7,0.3h-12.3
			c0,1.1,0.2,2.1,0.5,2.9c0.3,0.8,0.7,1.5,1.2,2.1c0.5,0.6,1.1,1,1.8,1.2s1.5,0.4,2.3,0.4c0.8,0,1.5-0.1,2.1-0.3
			c0.6-0.2,1.1-0.4,1.5-0.6c0.4-0.2,0.8-0.4,1.1-0.6c0.3-0.2,0.5-0.3,0.8-0.3c0.3,0,0.5,0.1,0.7,0.3L141.8,114.2z M138.8,105.4
			c0-0.7-0.1-1.4-0.3-2c-0.2-0.6-0.5-1.1-0.9-1.6c-0.4-0.4-0.9-0.8-1.4-1c-0.6-0.2-1.2-0.4-2-0.4c-1.5,0-2.7,0.4-3.6,1.3
			c-0.9,0.9-1.4,2.1-1.7,3.6H138.8z"/>
		<path class="st0" d="M149.4,101.7c0.6-1.2,1.3-2.2,2.2-2.9c0.9-0.7,1.9-1.1,3.1-1.1c0.4,0,0.8,0,1.2,0.1c0.4,0.1,0.7,0.2,1,0.4
			l-0.2,2.7c-0.1,0.3-0.3,0.5-0.6,0.5c-0.2,0-0.4,0-0.8-0.1c-0.3-0.1-0.7-0.1-1.1-0.1c-0.6,0-1.1,0.1-1.5,0.3
			c-0.4,0.2-0.8,0.4-1.2,0.7c-0.4,0.3-0.7,0.7-0.9,1.2c-0.3,0.5-0.5,1-0.8,1.6v11.8H146V98h2.1c0.4,0,0.7,0.1,0.8,0.2
			c0.1,0.1,0.2,0.4,0.3,0.7L149.4,101.7z"/>
	</g>
</g>
</svg>
