<?xml version="1.0" encoding="utf-8"?>
<!-- Generator: Adobe Illustrator 25.0.0, SVG Export Plug-In . SVG Version: 6.00 Build 0)  -->
<svg version="1.1" id="Layer_1" xmlns="http://www.w3.org/2000/svg" xmlns:xlink="http://www.w3.org/1999/xlink" x="0px" y="0px"
	 viewBox="0 0 255.3 42.5" style="enable-background:new 0 0 255.3 42.5;" xml:space="preserve">
<style type="text/css">
	.st0{fill:#CC2128;}
</style>
<path class="st0" d="M0,39.6c20.2-8.4,41.2-15,62.5-20.4c21.2-5.5,42.9-9.6,64.7-12.2c11-1.1,21.9-2.1,33-2.3
	c11-0.1,22.1,0,33.1,1.3c11,1.2,22,3.3,32.5,6.6c10.5,3.4,20.8,8,29.5,14.8c-9.7-5.2-20-8.6-30.6-10.8c-10.5-2.3-21.3-3.4-32-4
	c-10.8-0.5-21.6-0.4-32.3,0.2c-10.8,0.4-21.6,1.5-32.3,2.7c-10.8,1.1-21.5,2.8-32.2,4.5c-10.7,1.6-21.4,3.7-32.1,5.7
	C42.6,29.8,21.3,34.5,0,39.6z"/>
</svg>
