<?xml version="1.0" encoding="utf-8"?>
<!-- Generator: Adobe Illustrator 25.0.0, SVG Export Plug-In . SVG Version: 6.00 Build 0)  -->
<svg version="1.1" id="Layer_1" xmlns="http://www.w3.org/2000/svg" xmlns:xlink="http://www.w3.org/1999/xlink" x="0px" y="0px"
	 viewBox="0 0 239.4 217.8" style="enable-background:new 0 0 239.4 217.8;" xml:space="preserve">
<style type="text/css">
	.st0{fill:#FFFFFF;}
</style>
<g>
	<g>
		<path class="st0" d="M181.7,210.4c-0.2,0-0.4,0-0.5,0l-123.1,0c-4.9,0-9.5-1.1-13.6-3.2l-2.9-1.5l-2.4-6.6l1.3-2.7
			c0.7-1.4,1.5-2.7,2.3-4c0.5-0.9,1-1.7,1.5-2.6c1.9-3.7,4-7.3,6.2-10.9c1.5-2.6,3.1-5.2,4.5-7.9c1.4-2.6,2.9-5.1,4.4-7.5l2.5-4.2
			c3-5.1,5.9-10.2,8.8-15.4l1.2-1.9c0.5-0.9,1.1-1.7,1.3-2.3l1.1-3.2l4.9-2l2.5,0l76.4,0.1l2-0.3l4.3,1.9l18.4,31.7
			c3,5.2,5.9,10.3,8.9,15.4c1.7,2.9,3.4,5.9,5,8.9l5.3,9.5l-4.9,4c-4.1,3.4-8.8,4-12.3,4.5C183.3,210.4,182.5,210.4,181.7,210.4z
			 M58.5,195.3l122.3,0l1.9,7.5l-0.1-4.7c-1.3-2.4-2.6-4.8-4-7.1c-3.1-5.2-6.1-10.4-9.1-15.6l-14.9-25.8H84.9
			c-0.1,0.1-0.1,0.2-0.2,0.3l-0.8,1.4c-2.9,5.2-5.9,10.4-8.9,15.5l-2.6,4.4c-1.4,2.3-2.8,4.7-4.1,7c-1.5,2.8-3.2,5.6-4.8,8.3
			C61.8,189.5,60.1,192.3,58.5,195.3z"/>
	</g>
	<g>
		<path class="st0" d="M157.5,149.8l-5.5-2.4l-0.6-3.4l-26.2-45.5c-1.7-3.1-3.5-6.2-5.3-9.2l-2.3-4c-1.3-2.2-2.5-4.5-4-6.6l-1.8-2.5
			l1.1-7.2l1.6-1L150,6.5l6.3,3c4.7,2.2,8.5,6,11.6,11.4c4.5,7.7,8.9,15.3,13.3,23l47.5,82.5c2.1,3.7,4.9,9.5,4.3,16.5l-0.6,6.6
			l-9.2,0.3L157.5,149.8z M128.5,74c0.8,1.3,1.6,2.6,2.3,4l2,3.6c1.9,3.1,3.7,6.4,5.5,9.6l25.1,43.5l52.6,0
			c-0.1-0.3-0.3-0.5-0.4-0.8l-47.5-82.5c-4.4-7.7-8.8-15.3-13.3-22.9c0-0.1-0.1-0.1-0.1-0.1L128.5,74z"/>
	</g>
	<g>
		<path class="st0" d="M79.7,149.7l-72.9-0.1l-0.5-7c-0.4-5.2,0.9-10.3,3.9-15.6l55.7-96.4c2-3.6,4.1-7.2,6.2-10.7
			c2.8-4.7,6.5-8.2,11-10.4l6.3-3.1l34,58.7c0.7,1.3,1.4,2.5,2,3.2l2.6,2.7l-0.6,3.7l-7.5-1.2l7.4,1.4l-0.2,1.8l-1.1,1.9
			c-1.5,2.2-2.7,4.4-4,6.7l-2.2,3.9c-4.1,6.9-8.1,13.9-12.2,20.9l-16.2,28.2c-1.3,2.2-2.6,4.4-3.7,6.7l-1.2,2.7l-4.4,1.8L79.7,149.7
			z M84.6,28.3c-1.9,3.2-3.8,6.5-5.6,9.8l-55.7,96.3l52.8,0c0.7-1.3,1.5-2.6,2.3-3.9l16-28c4-7,8.1-14,12.2-21l2.1-3.6
			c0.7-1.3,1.5-2.6,2.2-3.9c-0.3-0.6-0.6-1.1-0.9-1.6L84.6,28.3z"/>
	</g>
	<g>
		<path class="st0" d="M50.8,209.7l-6.6-2.9c-4.6-2-8.4-5.5-11.1-10.1c-3.7-6.2-7.2-12.5-10.8-18.7l-6.9-12c-2-3.4-4-6.8-5.9-10.3
			c-2.5-4.6-3.6-9.4-3.2-14.2l0.6-6.9l73.9,0.1l9.2,1.2l-2.5,8.8c-0.8,2.2-1.8,4-2.7,5.4l-0.8,1.4c-2.9,5.2-5.9,10.4-8.9,15.5
			l-2.6,4.4c-1.4,2.3-2.8,4.7-4.1,7c-1.5,2.8-3.2,5.6-4.8,8.3c-2,3.3-4,6.7-5.7,10.1c-0.6,1.2-1.3,2.4-2.1,3.6
			c-0.6,0.9-1.2,1.9-1.6,2.8L50.8,209.7z M23.4,149.6c1.6,2.9,3.3,5.8,5,8.7l7,12.1c3.3,5.8,6.6,11.6,10,17.4c1.6-3,3.3-5.9,5.1-8.8
			c1.5-2.6,3.1-5.2,4.5-7.9c1.4-2.6,2.9-5.1,4.4-7.5l2.5-4.2c1.9-3.2,3.7-6.4,5.5-9.6L23.4,149.6z"/>
	</g>
	<g>
		<path class="st0" d="M117.3,82.8l-2.9-4.1c-2-2.1-3.3-4.4-4.3-6.3L76.1,13.9l6.1-3.9c4.3-2.8,9.1-4.2,14.4-4.3
			c15.4-0.1,30.8-0.1,46.3,0c5.6,0,10.4,1.5,14.5,4.4l5.7,4l-37.9,65.7L117.3,82.8z M97.8,20.8l22,38.1l21.9-38.1
			C127.1,20.7,112.4,20.7,97.8,20.8z"/>
	</g>
	<g>
		<path class="st0" d="M188.3,208.1l-4.9-8.7c-1.5-2.8-3.1-5.6-4.7-8.4c-3.1-5.2-6.1-10.4-9.1-15.6l-16.9-29.5l-4.4-10.5l11.1-0.7
			l72.4-0.3l1.2,6.3c1,4.9-0.4,9-1.5,11.8c-1.6,3.9-3.7,7.5-5.9,11.1l-18.4,31.7c-2.4,4.2-5.7,7.7-9.8,10.4l-1.4,0.9L188.3,208.1z
			 M172.2,149.8l10.5,18.1c3,5.2,5.9,10.3,8.9,15.4c0.9,1.4,1.7,2.9,2.5,4.4l18.5-31.8c1.2-2,2.4-4,3.5-6L172.2,149.8z"/>
	</g>
</g>
</svg>
