<?xml version="1.0" encoding="utf-8"?>
<!-- Generator: Adobe Illustrator 25.0.0, SVG Export Plug-In . SVG Version: 6.00 Build 0)  -->
<svg version="1.1" id="Layer_1" xmlns="http://www.w3.org/2000/svg" xmlns:xlink="http://www.w3.org/1999/xlink" x="0px" y="0px"
	 viewBox="0 0 524.7 122.3" style="enable-background:new 0 0 524.7 122.3;" xml:space="preserve">
<style type="text/css">
	.st0{fill:#929497;}
</style>
<g>
	<g>
		<path class="st0" d="M212.7,47.1c3.2,0,6.5,0,9.7,0c0.8,0,1.1,0.2,1.2,1c1.7,14-7.5,23.3-18.9,24.3c-10.6,1-18.6-3.3-23.9-12.4
			c-5.5-9.4-2.8-22,5.7-28.8c7.6-6.1,15.9-7.1,24.9-3.5c2.2,0.9,4,2.3,5.8,3.8c0.7,0.6,0.6,0.9,0,1.4c-1,0.9-2,1.9-3,3
			c-0.7,0.8-1.1,0.6-1.8,0c-6-5-14.7-5.2-20.8-0.4c-5.6,4.4-7.7,10.4-6.3,17.3c1.4,6.7,5.6,11.2,12.3,12.8c5.8,1.4,11.2,0.3,15.7-4
			c2.1-2,3-4.6,3.6-7.4c0.2-1-0.5-0.7-0.9-0.7c-3.5,0-7.1,0-10.6,0c-1.2,0-2.7,0.4-3.4-0.2c-0.7-0.6-0.2-2.2-0.2-3.4
			c0-2.8,0-2.8,2.8-2.8C207.3,47.1,210,47.1,212.7,47.1z"/>
		<path class="st0" d="M314.6,45.7c0.4-2.4,0.4-2.4,2.8-2.4c0.9,0,1.8,0,2.6,0c0.8-0.1,1.1,0.2,1,1c-0.1,2.3,0,4.6,0,6.8
			c0,6.6,0,13.1,0,19.7c0,2.4-0.3,4.7-1.2,6.9c-2,5-5.9,7.6-11.1,8.2c-6.5,0.8-12.1-2.1-15-7.7c-0.5-0.9-0.4-1.3,0.6-1.6
			c1.2-0.4,2.4-0.9,3.6-1.5c0.8-0.4,1.1-0.3,1.6,0.5c2.1,3.9,6,5.3,10,4c3-1,4.8-3.6,5.1-7.4c0.1-1,0-1.9,0-2.9
			c-0.1,0-0.3-0.1-0.3,0c-4.1,4.6-11.9,3.8-16.3,0.3c-8.9-6.9-7.8-20.8,2.4-25.9C305.4,41.5,310.3,41.8,314.6,45.7z M315.3,57.3
			c0.1-0.5-0.1-1.2-0.2-1.9c-0.7-3.2-2.4-5.8-5.7-6.7c-3-0.9-5.7-0.1-7.9,2.1c-3.3,3.3-3.5,9.1-0.6,12.7c3.3,4,9,4.1,12.2,0.2
			C314.6,62.1,315.2,59.9,315.3,57.3z"/>
		<path class="st0" d="M514.1,68.1c-1.4,1.8-3.1,3.2-5.3,3.9c-7.1,2.4-14.7-1.6-16.8-9.2c-1.7-6.1-0.8-11.7,3.8-16.4
			c5.1-5.2,13.8-4.6,17.8,0.4c0.1,0.2,0.3,0.3,0.5,0.5c0-1.2,0-2.3,0-3.4c0-4,0-8.1,0-12.1c0-0.8,0.2-1.1,1-1.1
			c1.1,0.1,2.2,0.1,3.3,0c0.9-0.1,1,0.3,1,1.1c0,12.9,0,25.8,0,38.8c0,0.9-0.2,1.2-1.1,1.1c-1-0.1-2-0.1-3,0c-0.7,0-0.9-0.2-0.9-0.9
			c0-0.9,0-1.7,0-2.6C514.3,68.2,514.2,68.1,514.1,68.1z M496.5,58.2c0,0.5,0.1,1.4,0.3,2.3c0.7,3.6,3.7,6.6,7.1,7.2
			c3.6,0.6,7.2-1,8.9-4.2c2.1-3.9,2.1-8-0.2-11.9c-2.8-4.6-8.9-5.4-12.9-1.9C497.4,51.9,496.5,54.7,496.5,58.2z"/>
		<path class="st0" d="M289.4,57.7c0,8.6-6.6,15-15.3,15c-8.5,0-15.2-6.8-15-15.5c0.2-8.3,6.8-14.7,15.3-14.7
			C283,42.5,289.4,49,289.4,57.7z M282.7,57.6c0-0.4,0-0.8,0-1.2c-0.4-3.2-1.9-5.8-4.8-7.2c-2.8-1.3-5.7-1.1-8.4,0.7
			c-3.1,2.1-4.5,6.3-3.4,10.3c0.9,3.1,2.9,5.3,6,6.2C277.7,67.9,282.8,63.6,282.7,57.6z"/>
		<path class="st0" d="M226.1,57.5c0-8.5,6.5-15,15.1-15c8.7,0,15.2,6.5,15.3,15c0,8.6-6.5,15.2-15.1,15.2
			C232.6,72.7,226.1,66.2,226.1,57.5z M241.2,48.5c-4.9,0-8.5,3.8-8.5,9.1c0,5.1,3.8,9.2,8.5,9.1c4.8,0,8.5-4.1,8.5-9.3
			C249.7,52.3,246,48.5,241.2,48.5z"/>
		<path class="st0" d="M335.5,57.7c0-7.2,4-13,10.2-14.7c7.1-2,13.8,1.3,16.7,8.2c1.1,2.5,1.1,2.5-1.5,3.6c-5.5,2.3-11,4.6-16.5,6.8
			c-1.2,0.5-1,0.9-0.4,1.7c3.2,4.4,9.4,4.5,13,0.3c0.8-1,1.3-1,2.3-0.3c1,0.8,2,1.4,3.1,2c0.6,0.4,0.8,0.6,0.3,1.3
			c-3.6,5-10.3,7.2-16.6,5.3c-5.9-1.7-10.1-7-10.4-13.1C335.5,58.5,335.5,58,335.5,57.7z M350.3,48.3c-4.4,0-8.2,3.8-8.2,7.8
			c0,0.8,0.2,0.8,0.9,0.6c3.8-1.6,7.6-3.2,11.5-4.7c1.1-0.4,1-0.9,0.4-1.6C353.5,48.9,351.8,48.4,350.3,48.3z"/>
		<path class="st0" d="M376.9,51.3c0-10.6,6.7-19,16.8-21c6.8-1.3,13.1,0,18.3,5c1.3,1.2,1.3,1.2,0.1,2.4c-0.8,0.8-1.5,2-2.4,2.1
			c-0.9,0.2-1.5-1.2-2.3-1.9c-7.6-6.1-22.1-3.1-24.7,9.3c-1.1,5.2-0.5,10.2,3,14.5c5.9,7.2,16.9,7.8,23.6,1.3c1.5-1.4,1.5-1.4,2.9,0
			c0.3,0.3,0.7,0.7,1,1c1.3,1.3,1.3,1.3-0.1,2.6c-6.4,5.9-14,7.5-22.2,4.8c-8-2.7-12.6-8.5-13.9-16.9
			C376.9,53.5,376.9,52.4,376.9,51.3z"/>
		<path class="st0" d="M457.6,57.8c0,7.3-4.6,13.2-11.2,14.6c-10,2-18.4-5.5-17.6-15.7c0.6-7.2,5.3-12.7,11.6-13.6
			C450.3,41.6,457.6,47.9,457.6,57.8z M434.1,58c0,0.2,0,0.8,0.1,1.3c0.5,3.9,2.5,6.7,6.3,8c3.6,1.2,6.8,0.2,9.4-2.6
			c2.2-2.4,2.7-5.3,2.4-8.4c-0.6-6.2-6.3-10.1-11.9-8.2C436.5,49.4,434.1,53,434.1,58z"/>
		<path class="st0" d="M481.5,68c-3.8,4.9-9.1,5.6-13.5,3.9c-3.8-1.5-5.5-4.8-5.9-8.6c-0.5-4.1-0.1-8.1-0.2-12.2c0-2.1,0-4.2,0-6.3
			c0-0.7,0.2-1,1-1c1.4,0.1,3.2-0.5,4.1,0.2c0.9,0.8,0.2,2.6,0.3,3.9c0.1,4.6-0.2,9.1,0.1,13.7c0.2,3.4,1.9,5.4,4.8,6.1
			c3.2,0.8,6.1-0.4,7.9-3.1c1.2-1.8,1.6-3.9,1.6-6c0-4.5,0-8.9,0-13.4c0-1,0.2-1.5,1.3-1.4c1.3,0.1,2.9-0.5,3.7,0.2
			c0.8,0.8,0.3,2.5,0.3,3.8c0,7.6,0,15.2,0,22.7c0,1-0.3,1.4-1.3,1.3c-1.2-0.1-2.7,0.3-3.6-0.2C481.1,70.9,481.9,69.3,481.5,68z"/>
		<path class="st0" d="M325.6,49.5c0-6.9,0-13.8,0-20.8c0-1,0.2-1.4,1.3-1.3c1.3,0.1,2.6,0.1,3.9,0c1.1-0.1,1.5,0.3,1.5,1.4
			c-0.1,8.5,0,17,0,25.5c0,5.4,0,10.8,0,16.2c0,0.9-0.2,1.3-1.2,1.3c-1.4-0.1-2.8-0.1-4.2,0c-1,0.1-1.3-0.2-1.2-1.2
			C325.7,63.5,325.6,56.5,325.6,49.5z"/>
		<path class="st0" d="M419,51.2c0-6.3,0-12.7,0-19c0-1,0.2-1.4,1.3-1.3c1.1,0.1,2.2,0,3.3,0c0.6,0,0.8,0.2,0.8,0.8
			c0,0.8,0,1.7,0,2.5c0,12.1,0,24.2,0,36.3c0,1.1-0.2,1.5-1.4,1.4c-1.3-0.2-3,0.5-3.8-0.3c-0.7-0.8-0.2-2.4-0.2-3.7
			C419,62.2,419,56.7,419,51.2z"/>
	</g>
	<g>
		<path class="st0" d="M115.5,16.9c6.2,5.2,10.8,11.7,14.2,19c0.8,1.7,1.7,3.5,2.1,5.3c0.6,2.5,2,4.1,3.9,5.6
			c22.4,18.2,19,54.1-6.5,67.8c-6.3,3.4-13,5-20.1,5.1c-9.7,0-19.4,0-29.1,0c-0.7,0-1.4,0-2.2-0.1c0-8.4,0-16.9,0-25.3
			c0.6,0,1.2-0.1,1.9-0.1c9.8,0,19.7,0,29.5,0c0.8,0,1.6,0,2.3-0.1c7.9-1.2,13.9-8,13.8-15.8c-0.1-8.1-6.2-14.7-14.4-15.6
			c-1.1-0.1-1.5-0.5-1.5-1.6c0.2-3.7-0.3-7.3-1.4-10.9c-1.9-6.2-5.5-11.3-10.4-15.5C103.6,28.9,109.5,22.9,115.5,16.9z"/>
		<path class="st0" d="M21.3,111.4C13,105.2,7.7,97,5.7,86.9c-2.6-13,0.4-24.8,8.9-35.1c2.4-2.9,5.3-5.2,8.2-7.5
			c0.4,0,0.8-0.3,1.1-0.5c7-4.3,14.5-6.5,22.8-6.4c2.7,0,5.2,0.5,7.9,0.7c0.7,0.2,1.5,0.4,2.2,0.6c8.6,2.4,15.7,7,21.4,13.9
			c0.7,0.8,0.6,1.4-0.1,2.1c-5.6,5.5-11.1,11.1-16.7,16.7c-0.7,0.7-0.9,0.7-1.4-0.2c-2.9-5.1-7.3-8.1-13.3-8.3
			c-6.4-0.2-11.2,2.6-14.3,8.1c-3.1,5.6-2.7,11.2,0.8,16.5c1.6,2.4,4,4,6.4,5.5c-3.6,3.6-7.3,7.2-10.9,10.9
			C26.2,106.4,23.8,108.9,21.3,111.4z"/>
		<path class="st0" d="M54.6,38.1c-2.6-0.2-5.2-0.7-7.9-0.7C38.5,37.2,31,39.5,24,43.8c-0.4,0.2-0.7,0.5-1.1,0.5
			c3.9-13.8,11.9-24.6,23.8-32.4C57.1,4.9,68.6,1.9,81,2.6c12.8,0.7,24,5.3,33.8,13.6c0.2,0.2,0.4,0.4,0.6,0.7
			c-5.9,6-11.9,11.9-17.8,17.9c-7.5-5.7-15.9-8.1-25.2-6.4C65.4,29.6,59.4,32.8,54.6,38.1z"/>
		<path class="st0" d="M21.3,111.4c2.4-2.5,4.9-5,7.3-7.5c3.6-3.7,7.3-7.3,10.9-10.9c3.1,1.3,6.4,1.4,9.7,1.3c3.9-0.1,7.8,0,11.7,0
			c5.6,0,11.2,0,16.8,0.1c0,8.4,0,16.9,0,25.3c-2.2,0-4.3,0.1-6.5,0.1c-8.6,0-17.3,0.1-25.9,0C36.5,119.6,28.4,116.8,21.3,111.4z"/>
	</g>
	<g>
		<path class="st0" d="M180.4,98.3c0-3.8,0-7.5,0-11.3c0-0.7,0.2-0.8,0.8-0.8c2.6,0,5.1,0,7.7,0c3.6,0.1,6.5,2.5,7.2,5.8
			c0.8,4.1-2.1,8.1-6.3,8.5c-1.8,0.2-3.7,0.1-5.5,0.1c-0.6,0-0.8,0.2-0.7,0.8c0,2.8,0,5.5,0,8.3c0,0.6-0.2,0.8-0.8,0.7
			c-0.5,0-1.1,0-1.6,0c-0.5,0-0.7-0.2-0.7-0.7C180.4,105.9,180.4,102.1,180.4,98.3z M183.5,93.4c0,1.2,0,2.5,0,3.7
			c0,0.4,0.1,0.5,0.5,0.5c1.7,0,3.4,0,5.1,0c2.1-0.1,3.9-2,4-4.1c0.1-2.2-1.5-4.1-3.7-4.3c-1.8-0.2-3.6,0-5.4-0.1
			c-0.5,0-0.4,0.3-0.4,0.6C183.5,91,183.5,92.2,183.5,93.4z"/>
		<path class="st0" d="M209.1,108.2c-0.3-0.1-0.3,0.1-0.4,0.2c-2.1,3-6.7,2.9-8.9,1.5c-3.3-2.1-3.4-6.9-0.1-9
			c2.7-1.8,5.7-1.8,8.7-0.7c0.7,0.3,0.8,0.3,0.7-0.5c-0.2-1.9-1.4-3.1-3.3-3.5c-1.9-0.4-3.9,0.3-4.8,1.8c-0.2,0.4-0.4,0.4-0.8,0.2
			c-0.6-0.3-1.2-0.6-1.8-0.8c-0.5-0.2-0.5-0.4-0.2-0.8c1.2-1.9,2.9-3.1,5.2-3.4c2-0.2,4,0,5.8,1.2c2.1,1.4,2.9,3.4,2.9,5.8
			c0,3.2,0,6.4,0,9.5c0,0.4-0.1,0.6-0.6,0.6c-0.6,0-1.3,0-1.9,0c-0.4,0-0.5-0.1-0.5-0.5C209.1,109.3,209.1,108.8,209.1,108.2z
			 M203.9,108.1c2.4,0,4.6-1.8,5.1-4.1c0.1-0.6-0.1-1-0.6-1.2c-1.9-0.8-3.8-0.9-5.7-0.2c-0.6,0.2-1.1,0.6-1.5,1
			c-1.2,1.4-0.9,3.2,0.7,4C202.6,108,203.3,108.1,203.9,108.1z"/>
		<path class="st0" d="M267.6,102.7c-2,0-3.9,0-5.9,0c-0.6,0-0.7,0.2-0.6,0.7c0.5,3.3,3.3,5.2,6.5,4.6c1.3-0.3,2.4-1,3-2.2
			c0.2-0.5,0.4-0.5,0.9-0.3c0.5,0.3,1.1,0.5,1.7,0.7c0.5,0.2,0.5,0.4,0.3,0.8c-1.6,2.9-4.1,4-7.4,4c-4.9-0.1-8.7-4.4-8-9.9
			c0.4-3.5,2.2-6.3,5.7-7.3c5.1-1.5,9.9,1.4,10.4,7.4c0.1,1.7,0.1,1.7-1.5,1.7C270.9,102.7,269.2,102.7,267.6,102.7z M266,100.2
			c1.2,0,2.5,0,3.7,0c1.3,0,1.4-0.1,0.8-1.3c-0.9-2-2.7-2.9-5.1-2.7c-1.8,0.2-3.5,1.7-4,3.5c-0.1,0.4,0.1,0.5,0.4,0.5
			C263.2,100.2,264.6,100.2,266,100.2z"/>
		<path class="st0" d="M240.6,110.1c0-2,0-4.1,0-6.1c0-3.3,0-6.6,0-9.9c0.1-0.1,0.1-0.1,0.2-0.2c0.8,0,1.7,0,2.5,0
			c0,0.1,0.1,0.1,0.1,0.2c0,0.6,0,1.3,0,1.9c0.3,0.1,0.3,0,0.4-0.1c1.8-2.3,4.7-3.1,7.4-2.1c2.6,0.9,3.7,3,3.9,5.6
			c0.2,3.6,0.1,7.1,0.1,10.7c0,0.2,0.1,0.5-0.2,0.5c-0.9,0-1.9,0.2-2.8-0.1c0.2-0.1,0.2-0.4,0.2-0.5c0-2.9,0-5.7,0-8.6
			c0-0.2,0.1-0.5-0.2-0.6c0-0.3-0.1-0.7-0.1-1c-0.2-1.4-0.9-2.6-2.4-3.1c-1.7-0.5-3.2-0.4-4.5,1c-1.1,1.1-1.5,2.5-1.5,4
			c0,2.8,0,5.5,0,8.3c0,0.6-0.1,0.8-0.7,0.7c-0.8-0.1-1.6,0.2-2.3-0.1C240.8,110.2,240.7,110.1,240.6,110.1z"/>
		<path class="st0" d="M233.6,93.9c1.2,0,2.4,0,3.6,0c0.1,0.1,0.1,0.1,0.2,0.2c0,0.8,0,1.6,0,2.4c-0.1,0.1-0.1,0.1-0.2,0.2
			c-1,0.1-2,0.1-3.1,0c-0.6,0-0.8,0.1-0.8,0.7c0,2.5,0,5.1,0,7.6c0,2.3,0.9,3.1,3.2,2.7c0.3-0.1,0.5,0,0.6,0.3
			c0.2,0.4,0.3,0.9,0.5,1.3c0.4,1,0.4,1-0.7,1.2c-1,0.2-2.1,0.2-3.1,0c-2.2-0.5-3.6-2.2-3.6-4.6c-0.1-2.8-0.1-5.5,0-8.3
			c0-0.8-0.2-1-1-0.9c-0.6,0-1.6,0.3-1.9-0.1c-0.4-0.6-0.1-1.5-0.1-2.3c0-0.3,0.2-0.3,0.5-0.3c0.6,0,1.2,0,1.8,0
			c0.6,0.1,0.7-0.2,0.7-0.7c0-1.4,0-2.8,0-4.2c0,0,0.1-0.1,0.1-0.1c0.8,0,1.6,0,2.4,0c0.4,0,0.6,0.1,0.5,0.6c0,1.2,0,2.5,0,3.7
			c0,0.3,0,0.5,0.1,0.8C233.5,94,233.5,94,233.6,93.9z"/>
		<path class="st0" d="M280,96.6c1.5-2.8,4.4-3.5,6.5-3c0.6,0.1,0.8,0.4,0.5,0.9c0,0-0.1,0.1-0.1,0.1c-0.3,1.4-0.9,2.1-2.6,2
			c-2.3-0.2-4.1,2-4.2,4.5c0,2.8,0,5.6,0,8.5c0,0.7-0.2,0.9-0.8,0.8c-0.5-0.1-1.1,0-1.6,0c-0.6,0-0.7-0.2-0.7-0.7
			c0-5.1,0-10.1,0-15.2c0-0.6,0.2-0.7,0.7-0.7c0.7,0.1,1.7-0.2,2.1,0.1c0.5,0.4,0.1,1.4,0.2,2.1C280,96.1,280,96.3,280,96.6z"/>
		<path class="st0" d="M218.5,96.4c1.4-2.3,3.4-3,5.9-2.9c0.4,0,0.6,0.1,0.6,0.6c0,0.6,0,1.3,0,1.9c0,0.5-0.1,0.5-0.6,0.5
			c-0.9-0.1-1.8,0-2.7,0.3c-1.9,0.7-3.1,2.2-3.1,4.3c0,2.8,0,5.7,0,8.5c0,0.6-0.2,0.8-0.8,0.8c-0.5,0-1.1-0.1-1.6,0
			c-0.6,0.1-0.7-0.2-0.7-0.7c0-3.6,0-7.2,0-10.9c0-1.4,0-2.9,0-4.3c0-0.5,0.1-0.7,0.6-0.7c0.6,0,1.3,0,1.9,0c0.4,0,0.5,0.1,0.5,0.5
			C218.5,95,218.5,95.7,218.5,96.4z"/>
	</g>
</g>
</svg>
